<?xml version="1.0" encoding="UTF-8"?>
<svg
   xmlns:dc="http://purl.org/dc/elements/1.1/"
   xmlns:cc="http://creativecommons.org/ns#"
   xmlns:rdf="http://www.w3.org/1999/02/22-rdf-syntax-ns#"
   xmlns:svg="http://www.w3.org/2000/svg"
   xmlns="http://www.w3.org/2000/svg"
   viewBox="0 -5 169 290"
   height="290"
   width="290"
   id="svg128"
   version="1.1">
  <g
     id="layer1">
    <path
       id="path139"
       d="M 4.8498954,0.29393276 V 204.87134 c 0,40.39152 43.7470206,74.87064 80.5731896,75.03098 36.826165,0.16035 82.422775,-34.39941 81.993695,-75.03098 -0.42908,-40.63157 0,-151.375524 0,-151.375524 h -54.84042 l 0.73483,113.017254 c 7.48588,5.32957 11.88048,14.55263 13.11738,24.54318 1.23691,9.99055 -2.1386,23.30425 -9.31915,32.02288 -7.18054,8.71863 -18.788895,13.59661 -29.956531,13.76459 -11.167636,0.16798 -23.722871,-5.19193 -31.304502,-13.88435 -7.58163,-8.69241 -11.17572,-21.9059 -9.994277,-32.1178 1.181443,-10.2119 6.931957,-20.29764 13.3734,-24.76948 L 58.933577,-0.0025399 Z"
       style="fill:#0e69b7;" />
    <circle
       r="18.325527"
       cy="195.53186"
       cx="86.319786"
       id="path155"
       style="fill:#0e69b7" />
  </g>
</svg>
